# xmcd
#
# Track frame offsets: 
#        150
#        10621
#        23470
#        36988
#        48826
#        61320
#        73588
#        84435
#        95890
#        107512
#        119562
#        131896
#        145049
#        159877
#        171420
#        184758
#        197183
#        209085
#        223168
#        233848
#        241748
#        256230
#        269270
#        281117
#
# Disc length: 3904 seconds
#
# Revision: 0
# Processed by: cddbd v1.5.2PL0 Copyright (c) Steve Scherf et al.
# Submitted via: ExactAudioCopy v0.99pb3
#
DISCID=5f0f3e18
DTITLE=Various Artist - The Complete Motown Singles Volume 8 [CD40)
DYEAR=1968
DGENRE=R&B/Soul
TTITLE0=Smokey Robinson and The Miracles - Yester Love
TTITLE1=Smokey Robinson and The Miracles - Much Better Off
TTITLE2=Gladys Knight and The Pips - It Should Have Been Me
TTITLE3=Gladys Knight and The Pips - You Don't Love Me No More
TTITLE4=Diana Ross and The Supremes - What The World Needs Now Is Love
TTITLE5=Diana Ross and The Supremes - Your Kiss Of Fire
TTITLE6=Diana Ross and The Supremes  - Some Things You Never Get Used To
TTITLE7=Diana Ross and The Supremes - You've Been So Wonderful To Me
TTITLE8=Jimmy Ruffin - Don't Let Him Take Your Love From Me
TTITLE9=Jimmy Ruffin - Lonely Lonely Man Am I
TTITLE10=Stevie Wonder - You Met Your Match
TTITLE11=Stevie Wonder - My Girl
TTITLE12=Bobby Taylor and The Vancouvers - I Am Your Man
TTITLE13=Bobby Taylor and The Vancouvers - If You Love Her
TTITLE14=Four Tops - Yesterday's Dreams
TTITLE15=Four Tops - For Once In My Life
TTITLE16=Mavin Gaye and Tammi Terrell - You're All I Need To Get By
TTITLE17=Smokey Robinson and The Miracles - I Care About Detroit
TTITLE18=The Temptations - Please Return Your Love To Me
TTITLE19=The Temptations - How Can I Forget
TTITLE20=Jr. Walker and The All Stars - Hip City (Part 2)
TTITLE21=Jr. Walker and The All Stars - Hip City (Part 1)
TTITLE22=Martha Reeves and The Vandellas - I Can't Dance To That Music Y
TTITLE22=ou're Playin'
TTITLE23=Martha Reeves and The Vandellas - I Tried
EXTD=
EXTT0=
EXTT1=
EXTT2=
EXTT3=
EXTT4=
EXTT5=
EXTT6=
EXTT7=
EXTT8=
EXTT9=
EXTT10=
EXTT11=
EXTT12=
EXTT13=
EXTT14=
EXTT15=
EXTT16=
EXTT17=
EXTT18=
EXTT19=
EXTT20=
EXTT21=
EXTT22=
EXTT23=
PLAYORDER=
